<svg xmlns="http://www.w3.org/2000/svg" xmlns:xlink="http://www.w3.org/1999/xlink" version="1.1" x="0px" y="0px"
  enable-background="new 0 0 66 66" xml:space="preserve" viewBox="1 12.7 64 40.7">
  <g>
    <path d="M8.2,30.4C7.3,30.2,6,30.1,4.6,30c0-0.9,0.1-2.1,0.2-3.1c0.9,0,2.3,0.3,3.5,0.7C8.2,29.5,8.2,30.1,8.2,30.4z">
    </path>
    <path
      d="M22,53.2c-6.2-0.7-11.1-2.9-14.7-6.4C1.9,41.5,1.1,34.6,1,32.3c2.2-0.5,5.2-0.2,7.4,0.1c0.5,5.3,2.6,10.3,5.8,14.2   C16.1,49,18.7,51.4,22,53.2z">
    </path>
    <path
      d="M26.4,52.7c-4.7-1.4-8.3-4.5-10.6-7.4C9.6,38,9,26.8,12,19.6c6.7-0.4,9.9,3.3,10.6,4.2c-3.4,7.7-3.9,16-0.4,23.3   C23.3,49.4,24.8,51.3,26.4,52.7z">
    </path>
    <path d="M23.5,21.7c-1-1-2.8-2.5-5.5-3.4c0.2-2,1.7-4.4,2.6-5.6c2.5,1,4.8,3.3,5.8,4.4C25.4,18.4,24.4,20,23.5,21.7z">
    </path>
    <path
      d="M44.4,38.3c-0.4,6.4-4.9,15.1-11.1,15.1c-3.7,0-7-2.6-9.3-7.2c-5.5-11.4,0.3-26.1,9-33.4C40.7,18.1,44.8,30.1,44.4,38.3z">
    </path>
    <path
      d="M42.7,21.5c-0.7-1.5-1.5-2.9-2.5-4.3c0.9-1.1,3.2-3.5,5.8-4.5c1,1.2,2.5,3.5,2.6,5.5C45.7,18.9,43.8,20.4,42.7,21.5z">
    </path>
    <path
      d="M39.9,52.6c2.9-2.7,6.2-7.2,6.6-14.3c0.2-3.3-0.7-9.4-2.9-14.8c1-1.1,4.1-4.3,10.4-3.9C59.2,32,52.8,48.6,39.9,52.6z">
    </path>
    <path
      d="M57.7,27.6c1.2-0.3,2.6-0.7,3.6-0.7c0.1,1,0.3,2.2,0.2,3.1c-1.5,0-2.9,0.2-3.8,0.3C57.8,29.7,57.8,29.5,57.7,27.6z">
    </path>
    <path
      d="M65,32.3c-0.1,2.2-0.9,9.1-6.2,14.4c-3.6,3.5-8.5,5.7-14.7,6.4c6.8-3.6,12.6-11,13.6-20.7C59.4,32.2,62.8,31.8,65,32.3z">
    </path>
  </g>
</svg>
