<svg xmlns="http://www.w3.org/2000/svg" viewBox="0 0 223 30">
  <g fill="none" fill-rule="evenodd">
    <rect width="223" height="30" fill="#9333EA" fill-rule="nonzero" rx="8"/>
    <g fill-rule="nonzero">
      <path fill="#FFF" d="M41.42 7h1.6c3.1 0 5.62 2.51 5.62 5.61v.33c0 3.1-2.51 5.62-5.61 5.62h-1.61v1.69a2.6 2.6 0 0 1-2.6 2.59H26.6a2.6 2.6 0 0 1-2.59-2.6V8.3c0-.72.58-1.3 1.3-1.3h16.12Zm0 3v5.56h1.46a2.78 2.78 0 1 0 0-5.56h-1.46Z"/>
      <path fill="#9333EA" d="M32.36 12.28c.4-1.17 1.35-1.76 2.85-1.76 2.24 0 3.07 2.8 1.9 4.62-.79 1.22-2.37 2.76-4.75 4.62-2.38-1.86-3.96-3.4-4.75-4.62-1.17-1.83-.34-4.62 1.9-4.62 1.5 0 2.45.59 2.85 1.76Z"/>
    </g>
    <text fill="#FFF" font-family="SFProRounded-Medium, SF Pro Rounded" font-size="14" font-weight="400">
        <tspan x="62" y="19">Support ohanami.app</tspan>
      </text>
  </g>
</svg>
